<svg xmlns="http://www.w3.org/2000/svg" viewBox="0 0 1200 633" role="img" aria-labelledby="title desc">
  <title id="title">Yuan RTOS</title>
  <desc id="desc">Yuan RTOS dark theme logo with cyan angle brackets</desc>
  <style>
    .primary { fill: #FFFFFF; }
    .accent { fill: #39C6E8; }
  </style>
  <path class="primary" fill-rule="evenodd" d="M 170.74 358.25 L 168.11 355.50 L 167.80 316.50 L 167.50 277.50 L 164.36 272.00 C 162.63 268.98 155.81 257.95 149.21 247.50 C 142.61 237.05 135.64 226.03 133.74 223.00 C 114.00 191.71 108.40 183.18 106.32 181.25 L 103.89 179.00 L 75.14 179.00 C 54.12 179.00 46.08 178.68 45.20 177.80 C 44.54 177.14 44.00 176.18 44.00 175.67 C 44.00 175.16 47.94 170.70 52.75 165.75 C 57.56 160.81 63.94 154.94 66.93 152.72 C 69.92 150.49 74.64 147.75 77.43 146.63 C 81.83 144.86 85.24 144.54 103.16 144.21 C 122.06 143.86 124.20 144.00 128.29 145.80 C 132.35 147.60 133.54 149.05 141.13 161.46 C 158.16 189.29 175.72 217.72 180.54 225.25 C 183.27 229.51 185.80 233.00 186.16 233.00 C 186.52 233.00 188.49 229.96 190.54 226.25 C 192.59 222.54 197.42 213.43 201.27 206.00 C 205.12 198.57 212.87 183.95 218.49 173.50 C 224.11 163.05 231.54 149.10 235.00 142.50 C 238.46 135.90 248.70 117.00 257.76 100.50 C 266.81 84.00 276.67 66.12 279.66 60.76 C 284.24 52.56 285.84 50.59 289.80 48.26 L 294.50 45.50 L 721.69 45.24 L 1148.88 44.99 L 1151.45 47.24 C 1153.94 49.43 1154.03 49.90 1154.15 62.05 C 1154.24 70.16 1153.86 75.39 1153.08 76.85 C 1152.42 78.08 1150.83 79.49 1149.56 79.98 C 1148.23 80.48 970.66 80.84 734.87 80.81 C 450.21 80.78 321.68 81.09 319.87 81.82 C 318.42 82.39 316.34 84.13 315.24 85.68 C 314.15 87.23 310.34 93.67 306.79 100.00 C 303.23 106.33 294.33 122.07 287.01 135.00 C 279.69 147.93 271.59 162.32 269.01 167.00 C 260.51 182.41 230.97 235.13 219.13 256.00 L 207.50 276.50 L 207.00 315.50 C 206.46 357.32 206.43 357.57 201.26 359.93 C 199.96 360.52 193.16 361.00 186.14 361.00 L 173.37 361.00 L 170.74 358.25 Z M 394.13 343.96 C 390.62 343.48 384.77 342.13 381.13 340.96 C 377.48 339.79 371.53 337.27 367.90 335.37 C 364.27 333.46 358.80 329.69 355.76 326.97 C 352.71 324.25 348.55 319.53 346.52 316.46 C 344.48 313.40 341.54 307.39 339.98 303.12 C 338.33 298.58 336.70 291.35 336.07 285.71 C 335.44 280.00 335.00 253.57 335.00 220.79 C 335.00 170.15 335.15 165.21 336.75 162.01 C 337.71 160.10 339.62 157.97 341.00 157.28 C 342.64 156.46 348.39 156.02 357.80 156.01 C 368.62 156.00 372.81 156.37 375.02 157.51 C 376.63 158.34 378.52 160.03 379.22 161.26 C 380.22 163.01 380.50 176.40 380.50 222.50 C 380.50 281.50 380.50 281.50 383.31 287.50 C 384.85 290.80 387.10 294.56 388.31 295.87 C 389.51 297.17 392.19 299.32 394.25 300.63 C 396.31 301.95 400.81 303.69 404.25 304.50 C 409.08 305.64 417.94 305.97 443.30 305.99 C 469.17 306.00 477.53 305.68 482.82 304.47 C 487.47 303.42 491.07 301.79 494.50 299.19 C 497.87 296.65 500.43 293.55 502.48 289.54 C 505.50 283.65 505.50 283.65 506.00 222.74 C 506.50 161.83 506.50 161.83 509.77 158.92 C 513.03 156.00 513.03 156.00 527.57 156.00 C 538.14 156.00 542.84 156.39 544.84 157.41 C 546.34 158.19 548.14 159.89 548.83 161.19 C 549.82 163.04 550.02 177.82 549.77 229.52 C 549.45 295.50 549.45 295.50 546.74 302.87 C 545.26 306.92 542.47 312.60 540.54 315.50 C 538.62 318.40 533.95 323.63 530.16 327.14 C 526.37 330.64 520.29 334.98 516.65 336.79 C 513.00 338.60 506.52 341.04 502.26 342.22 C 494.90 344.26 492.09 344.38 447.50 344.59 C 421.65 344.72 397.63 344.43 394.13 343.96 Z M 639.53 343.92 C 636.25 343.42 630.62 342.06 627.03 340.88 C 623.44 339.71 617.99 337.25 614.93 335.41 C 611.87 333.58 607.07 329.66 604.28 326.70 C 601.49 323.75 598.03 319.02 596.59 316.19 C 595.16 313.35 593.32 308.22 592.51 304.77 C 591.60 300.93 591.02 293.41 591.01 285.39 C 591.01 278.17 591.46 269.85 592.02 266.89 C 592.58 263.93 594.37 258.67 596.00 255.19 C 597.77 251.40 601.39 246.33 605.06 242.52 C 609.27 238.13 613.40 235.06 618.33 232.62 C 622.28 230.67 628.65 228.28 632.50 227.29 C 638.76 225.69 644.70 225.50 689.00 225.50 C 728.30 225.50 739.63 225.79 743.99 226.91 C 747.02 227.68 751.29 229.14 753.49 230.14 C 755.70 231.14 758.13 231.97 758.89 231.98 C 760.02 232.00 760.19 229.94 759.77 220.75 C 759.47 214.12 758.65 208.06 757.77 206.00 C 756.95 204.07 755.00 201.23 753.43 199.68 C 751.86 198.12 748.99 196.10 747.04 195.18 C 743.87 193.67 736.27 193.45 674.00 193.00 C 606.50 192.51 604.42 192.44 601.75 190.50 C 600.24 189.40 598.73 187.48 598.39 186.24 C 598.06 185.00 598.07 182.43 598.43 180.53 C 598.83 178.36 600.96 175.02 604.13 171.54 C 607.44 167.93 611.32 165.00 615.35 163.09 C 618.73 161.48 624.20 159.37 627.50 158.40 C 632.84 156.84 639.74 156.60 690.50 156.25 C 730.23 155.98 749.91 156.21 755.45 157.01 C 759.82 157.65 766.35 159.34 769.95 160.76 C 773.55 162.19 778.08 164.34 780.02 165.55 C 781.95 166.75 786.08 170.48 789.19 173.84 C 792.31 177.20 796.26 182.81 797.98 186.31 C 799.70 189.80 801.74 196.23 802.52 200.58 C 803.58 206.51 803.94 218.68 803.97 249.07 C 803.99 282.34 804.27 290.56 805.52 294.74 C 806.48 297.97 808.15 300.79 810.06 302.40 C 811.73 303.80 814.86 305.42 817.03 306.01 C 819.19 306.59 821.42 307.92 821.98 308.97 C 822.54 310.01 823.00 317.61 823.00 325.86 C 823.00 340.85 823.00 340.85 820.25 343.04 C 817.78 345.01 816.71 345.17 809.74 344.64 C 805.47 344.32 798.85 342.97 795.03 341.64 C 791.20 340.31 785.80 337.55 783.01 335.51 C 780.22 333.46 776.81 330.30 775.43 328.50 C 772.92 325.21 772.92 325.21 767.71 330.41 C 764.84 333.27 760.02 336.81 757.00 338.28 C 753.98 339.74 748.80 341.72 745.50 342.66 C 740.25 344.17 733.60 344.42 692.50 344.60 C 666.65 344.72 642.81 344.41 639.53 343.92 Z M 744.12 304.98 C 746.11 304.43 749.25 302.96 751.10 301.71 C 752.95 300.46 755.46 297.67 756.68 295.50 C 757.90 293.33 759.19 288.78 759.56 285.33 C 759.96 281.53 759.75 277.14 759.02 274.07 C 758.17 270.54 756.82 268.17 754.49 266.13 C 752.67 264.52 749.45 262.60 747.34 261.86 C 744.33 260.79 733.82 260.50 698.50 260.50 C 664.58 260.50 652.45 260.82 649.24 261.79 C 646.89 262.50 643.34 264.52 641.34 266.28 C 639.34 268.03 637.09 270.92 636.35 272.70 C 635.61 274.48 635.00 279.23 635.00 283.26 C 635.00 288.88 635.52 291.60 637.25 294.98 C 638.49 297.40 640.70 300.26 642.17 301.33 C 647.88 305.49 652.41 305.86 697.50 305.93 C 723.44 305.96 741.94 305.59 744.12 304.98 Z M 848.88 342.04 C 845.92 339.07 845.92 339.07 846.24 272.29 C 846.53 212.36 846.74 204.88 848.30 199.50 C 849.26 196.20 851.43 190.64 853.13 187.15 C 854.88 183.56 858.99 177.86 862.60 174.05 C 866.93 169.46 870.98 166.31 875.23 164.24 C 878.68 162.56 883.61 160.48 886.19 159.63 C 888.78 158.77 893.73 157.60 897.19 157.04 C 900.87 156.44 923.80 156.01 952.16 156.01 C 990.98 156.00 1002.41 156.30 1008.66 157.48 C 1013.32 158.36 1019.80 160.59 1024.62 162.97 C 1030.72 165.97 1034.24 168.57 1038.76 173.40 C 1042.07 176.94 1045.91 182.23 1047.30 185.17 C 1048.68 188.10 1050.65 193.43 1051.66 197.00 C 1053.37 203.03 1053.50 208.49 1053.50 271.84 C 1053.50 340.17 1053.50 340.17 1050.69 342.59 C 1048.00 344.91 1047.31 345.00 1032.87 345.00 C 1017.85 345.00 1017.85 345.00 1014.92 342.08 C 1012.00 339.15 1012.00 339.15 1012.00 278.26 C 1012.00 225.88 1011.78 216.62 1010.43 212.09 C 1009.45 208.77 1007.37 205.18 1004.84 202.44 C 1002.18 199.55 998.90 197.35 995.16 195.93 C 989.99 193.97 987.01 193.74 960.50 193.27 C 943.62 192.97 927.27 193.19 921.38 193.80 C 914.05 194.55 909.89 195.53 906.25 197.37 C 903.50 198.77 899.89 201.27 898.22 202.93 C 896.56 204.59 894.38 208.10 893.37 210.72 C 891.66 215.14 891.51 220.14 891.23 277.69 C 890.93 339.88 890.93 339.88 887.89 342.44 C 884.89 344.96 884.59 345.00 868.35 345.00 C 851.85 345.00 851.85 345.00 848.88 342.04 Z M 272.67 586.33 C 272.30 585.97 272.00 550.43 272.00 507.37 C 272.00 433.81 272.11 429.02 273.75 428.17 C 274.71 427.68 295.57 427.18 320.10 427.07 C 348.20 426.94 367.81 427.27 373.10 427.97 C 378.57 428.69 383.65 430.12 387.66 432.06 C 391.68 434.00 395.72 437.09 399.29 440.95 C 402.50 444.41 405.49 448.86 406.52 451.68 C 407.84 455.32 408.39 460.75 408.75 473.83 C 409.06 485.17 408.81 493.28 408.03 497.33 C 407.37 500.72 405.70 505.58 404.32 508.13 C 402.94 510.68 399.70 514.84 397.12 517.38 C 394.20 520.26 389.90 523.07 385.75 524.82 L 379.08 527.64 L 390.72 545.07 C 397.12 554.66 405.45 567.37 409.24 573.32 C 414.81 582.05 415.91 584.41 414.95 585.57 C 414.01 586.69 410.58 587.00 398.88 587.00 L 384.01 587.00 L 370.72 566.75 C 363.41 555.61 354.97 542.57 351.96 537.77 L 346.50 529.04 L 323.75 529.02 L 301.00 529.00 L 301.00 556.80 C 301.00 577.09 300.68 584.92 299.80 585.80 C 298.99 586.61 294.46 587.00 285.97 587.00 C 279.02 587.00 273.03 586.70 272.67 586.33 Z M 373.68 498.41 C 375.23 497.26 377.18 495.01 378.00 493.41 C 379.11 491.26 379.50 487.08 379.50 477.32 C 379.50 465.57 379.28 463.85 377.44 461.39 C 376.30 459.87 374.13 457.70 372.62 456.56 C 369.95 454.57 368.64 454.50 335.68 454.50 L 301.50 454.50 L 301.23 477.79 L 300.96 501.07 L 335.91 500.79 C 369.56 500.51 370.96 500.42 373.68 498.41 Z M 504.31 585.75 L 503.50 584.50 L 503.00 519.50 L 502.50 454.50 L 474.55 454.23 L 446.60 453.97 L 445.81 452.73 L 445.03 451.50 L 445.02 440.82 L 445.00 430.14 L 446.52 428.62 L 448.04 427.10 L 517.42 427.03 L 586.81 426.95 L 588.40 428.55 L 590.00 430.14 L 590.00 440.38 L 590.00 450.62 L 588.75 452.30 L 587.50 453.98 L 560.50 454.24 L 533.50 454.50 L 533.24 519.41 L 532.99 584.31 L 531.87 585.66 L 530.76 587.00 L 517.94 587.00 L 505.12 587.00 L 504.31 585.75 Z M 653.98 585.15 C 650.95 584.17 646.00 581.78 642.98 579.85 C 639.97 577.92 636.04 574.68 634.26 572.64 C 632.47 570.61 630.15 567.26 629.10 565.19 C 628.05 563.13 626.35 558.75 625.34 555.47 C 623.66 550.03 623.51 545.71 623.65 506.50 C 623.80 465.47 623.90 463.21 625.94 457.17 C 627.11 453.69 629.12 449.19 630.40 447.17 C 631.67 445.15 634.77 441.62 637.27 439.31 C 639.77 437.01 644.00 434.03 646.66 432.70 C 649.32 431.37 653.98 429.65 657.00 428.89 C 661.19 427.83 671.19 427.50 699.00 427.50 C 726.81 427.50 736.81 427.83 741.00 428.89 C 744.02 429.65 748.52 431.30 751.00 432.56 C 753.48 433.81 757.83 437.24 760.69 440.17 C 763.54 443.10 767.01 447.78 768.40 450.57 C 769.79 453.36 771.43 458.86 772.03 462.78 C 772.76 467.46 773.01 483.82 772.76 510.21 C 772.43 545.67 772.17 551.16 770.58 556.00 C 769.59 559.02 767.75 563.53 766.49 566.02 C 765.23 568.51 761.88 572.71 759.05 575.35 C 756.22 578.00 750.89 581.59 747.20 583.33 C 740.50 586.50 740.50 586.50 700.00 586.72 C 663.41 586.92 658.97 586.77 653.98 585.15 Z M 732.58 558.10 C 734.82 557.08 737.63 555.01 738.83 553.49 C 740.02 551.97 741.48 549.10 742.06 547.11 C 742.75 544.76 743.01 529.85 742.81 504.42 C 742.50 465.34 742.50 465.34 739.70 461.67 C 738.16 459.65 735.46 457.21 733.70 456.25 C 730.84 454.69 727.08 454.50 698.50 454.50 C 666.50 454.50 666.50 454.50 662.20 456.96 C 659.84 458.32 656.91 461.02 655.70 462.96 C 653.53 466.46 653.50 467.01 653.50 507.00 C 653.50 545.73 653.59 547.65 655.50 550.82 C 656.60 552.64 659.01 555.07 660.86 556.22 C 662.71 557.36 665.63 558.63 667.36 559.05 C 669.09 559.46 683.55 559.83 699.50 559.88 C 725.70 559.95 728.89 559.78 732.58 558.10 Z M 860.95 586.99 C 845.78 586.48 845.24 586.39 838.53 583.09 C 834.74 581.23 829.80 577.85 827.53 575.58 C 825.26 573.32 822.21 569.06 820.75 566.14 C 819.30 563.21 817.55 558.34 816.87 555.32 C 815.84 550.70 815.87 549.69 817.07 548.93 C 817.86 548.43 823.38 546.41 829.35 544.45 C 835.32 542.49 841.13 541.03 842.27 541.19 C 843.58 541.39 844.68 542.61 845.24 544.50 C 847.36 551.60 849.49 555.14 852.91 557.27 C 856.40 559.44 857.26 559.50 884.50 559.50 C 912.22 559.50 912.53 559.48 915.77 557.17 C 917.56 555.89 919.70 553.55 920.52 551.97 C 921.50 550.06 922.00 546.11 922.00 540.20 C 922.00 532.62 921.67 530.80 919.75 527.95 C 918.51 526.11 915.92 523.68 914.00 522.55 C 910.75 520.65 908.36 520.46 881.00 519.91 C 856.13 519.41 850.74 519.04 846.64 517.53 C 843.97 516.54 839.84 514.65 837.46 513.32 C 835.09 512.00 831.32 509.08 829.08 506.85 C 826.85 504.61 823.58 499.86 821.82 496.29 C 818.92 490.39 818.58 488.72 818.18 478.38 C 817.92 471.58 818.24 464.46 818.97 460.77 C 819.64 457.36 821.30 452.37 822.66 449.69 C 824.01 447.01 826.88 442.92 829.02 440.59 C 831.17 438.26 835.29 435.07 838.18 433.50 C 841.08 431.92 845.93 430.01 848.97 429.24 C 852.40 428.37 862.65 427.64 876.00 427.31 C 888.01 427.01 902.96 427.25 909.87 427.85 C 919.99 428.73 923.36 429.45 928.42 431.81 C 931.82 433.40 936.28 436.18 938.34 437.99 C 940.39 439.80 943.24 443.25 944.65 445.67 C 946.07 448.09 948.09 452.81 949.13 456.17 C 950.55 460.75 950.75 462.60 949.90 463.62 C 949.28 464.36 943.89 466.55 937.91 468.49 C 931.93 470.42 925.91 472.00 924.54 472.00 C 922.68 472.00 921.91 471.36 921.52 469.50 C 921.23 468.12 920.75 465.80 920.44 464.34 C 920.13 462.88 918.42 460.22 916.64 458.44 C 914.07 455.87 912.25 455.05 907.95 454.52 C 904.95 454.15 892.60 453.99 880.50 454.17 C 859.45 454.49 858.34 454.60 854.73 456.85 C 852.65 458.14 850.29 460.48 849.48 462.05 C 848.50 463.94 848.00 467.91 848.00 473.82 C 848.00 481.34 848.33 483.14 850.09 485.39 C 851.24 486.85 853.60 488.81 855.34 489.75 C 858.01 491.20 862.90 491.56 887.00 492.14 C 902.67 492.52 917.47 493.33 919.89 493.95 C 922.30 494.57 926.66 496.20 929.58 497.58 C 932.50 498.96 937.08 502.06 939.76 504.48 C 943.15 507.52 945.68 511.10 948.03 516.18 C 951.20 523.02 951.44 524.32 951.82 536.05 C 952.05 543.30 951.74 550.93 951.08 554.12 C 950.45 557.15 948.67 562.30 947.13 565.57 C 945.30 569.43 942.33 573.32 938.66 576.68 C 935.13 579.90 930.82 582.67 927.25 584.01 C 924.09 585.19 918.58 586.36 915.00 586.61 C 911.43 586.86 901.30 587.16 892.50 587.28 C 883.70 587.40 869.50 587.27 860.95 586.99 Z"/>
  <path class="accent" fill-rule="evenodd" d="M 999.63 584.25 C 999.35 583.29 999.26 576.95 999.43 570.17 C 999.65 561.29 1000.12 557.47 1001.12 556.54 C 1001.88 555.83 1014.42 548.59 1029.00 540.47 C 1043.58 532.34 1059.33 523.60 1064.00 521.04 C 1080.35 512.08 1088.00 507.61 1088.00 507.00 C 1088.00 506.66 1082.49 503.30 1075.75 499.53 C 1057.94 489.57 1017.62 467.26 1009.66 462.97 C 1005.90 460.95 1001.94 458.54 1000.88 457.63 L 998.94 455.97 L 999.22 442.75 L 999.50 429.52 L 1001.25 429.19 C 1002.21 429.00 1008.51 431.88 1015.25 435.58 C 1030.74 444.09 1053.50 456.86 1086.00 475.26 C 1100.03 483.20 1112.93 490.44 1114.68 491.34 C 1116.43 492.24 1118.18 493.99 1118.57 495.22 C 1118.96 496.45 1119.37 501.52 1119.48 506.48 C 1119.58 511.44 1119.26 516.72 1118.76 518.20 L 1117.84 520.90 L 1105.17 528.10 C 1084.52 539.83 1055.22 556.29 1027.70 571.62 C 1013.51 579.53 1001.50 586.00 1001.02 586.00 C 1000.53 586.00 999.91 585.21 999.63 584.25 Z M 192.00 575.60 C 182.93 570.52 157.81 556.61 136.18 544.69 C 114.56 532.76 96.44 523.00 95.92 523.00 C 95.40 523.00 94.08 521.54 92.99 519.75 L 91.01 516.50 L 91.00 507.30 C 91.00 502.24 91.51 496.97 92.14 495.59 C 92.84 494.05 96.58 491.20 101.89 488.18 C 106.63 485.48 115.22 480.66 121.00 477.47 C 126.78 474.28 137.12 468.42 144.00 464.46 C 150.88 460.50 162.57 453.89 170.00 449.78 C 196.97 434.85 209.65 428.00 210.32 428.00 C 210.69 428.00 211.00 434.46 211.00 442.35 L 211.00 456.69 L 209.25 458.20 C 208.29 459.04 204.12 461.49 200.00 463.66 C 195.88 465.83 185.75 471.37 177.50 475.97 C 136.42 498.86 123.00 506.56 123.00 507.25 C 123.00 507.66 123.48 508.00 124.07 508.00 C 124.66 508.00 130.17 510.85 136.32 514.34 C 152.09 523.28 171.56 534.17 192.50 545.76 L 210.50 555.72 L 210.78 570.36 L 211.05 585.00 L 209.78 584.91 C 209.07 584.86 201.07 580.67 192.00 575.60 Z"/>
</svg>
